solid OpenSCAD_Model
  facet normal 0 -1 0
    outer loop
      vertex -35 -45 101.48
      vertex -19.83 -45 101.48
      vertex -35 -45 110.582
    endloop
  endfacet
  facet normal 0 -1 0
    outer loop
      vertex -26.8367 -45 115.48
      vertex -7 -45 103.578
      vertex -7 -45 115.48
    endloop
  endfacet
  facet normal 0 -1 0
    outer loop
      vertex 7 -45 103.578
      vertex 26.8367 -45 115.48
      vertex 7 -45 115.48
    endloop
  endfacet
  facet normal 0 -1 0
    outer loop
      vertex 19.83 -45 101.48
      vertex 35 -45 101.48
      vertex 35 -45 110.582
    endloop
  endfacet
  facet normal -0 -1 0
    outer loop
      vertex -19.83 -45 87.48
      vertex -35 -45 87.48
      vertex -35 -45 78.378
    endloop
  endfacet
  facet normal 0 -1 0
    outer loop
      vertex 35 -45 78.378
      vertex 35 -45 87.48
      vertex 19.83 -45 87.48
    endloop
  endfacet
  facet normal 0 -1 0
    outer loop
      vertex 26.8367 -45 73.48
      vertex 7 -45 85.382
      vertex 7 -45 73.48
    endloop
  endfacet
  facet normal 0 -1 -0
    outer loop
      vertex -7 -45 85.382
      vertex -26.8367 -45 73.48
      vertex -7 -45 73.48
    endloop
  endfacet
  facet normal 0 1 0
    outer loop
      vertex -35 -43.2 110.582
      vertex -19.83 -43.2 101.48
      vertex -35 -43.2 101.48
    endloop
  endfacet
  facet normal 0 1 0
    outer loop
      vertex -7 -43.2 115.48
      vertex -7 -43.2 103.578
      vertex -26.8367 -43.2 115.48
    endloop
  endfacet
  facet normal -0 1 0
    outer loop
      vertex 7 -43.2 115.48
      vertex 26.8367 -43.2 115.48
      vertex 7 -43.2 103.578
    endloop
  endfacet
  facet normal 0 1 0
    outer loop
      vertex 35 -43.2 110.582
      vertex 35 -43.2 101.48
      vertex 19.83 -43.2 101.48
    endloop
  endfacet
  facet normal 0 1 0
    outer loop
      vertex -35 -43.2 78.378
      vertex -35 -43.2 87.48
      vertex -19.83 -43.2 87.48
    endloop
  endfacet
  facet normal -0 1 0
    outer loop
      vertex 19.83 -43.2 87.48
      vertex 35 -43.2 87.48
      vertex 35 -43.2 78.378
    endloop
  endfacet
  facet normal 0 1 0
    outer loop
      vertex 7 -43.2 73.48
      vertex 7 -43.2 85.382
      vertex 26.8367 -43.2 73.48
    endloop
  endfacet
  facet normal 0 1 -0
    outer loop
      vertex -7 -43.2 73.48
      vertex -26.8367 -43.2 73.48
      vertex -7 -43.2 85.382
    endloop
  endfacet
  facet normal 0.514496 -0 0.857493
    outer loop
      vertex -19.83 -45 101.48
      vertex -19.83 -43.2 101.48
      vertex -35 -45 110.582
    endloop
  endfacet
  facet normal 0.514496 0 0.857493
    outer loop
      vertex -19.83 -43.2 101.48
      vertex -35 -43.2 110.582
      vertex -35 -45 110.582
    endloop
  endfacet
  facet normal -1 0 0
    outer loop
      vertex -35 -45 110.582
      vertex -35 -43.2 110.582
      vertex -35 -45 101.48
    endloop
  endfacet
  facet normal -1 0 -0
    outer loop
      vertex -35 -43.2 110.582
      vertex -35 -43.2 101.48
      vertex -35 -45 101.48
    endloop
  endfacet
  facet normal 0 0 -1
    outer loop
      vertex -35 -45 101.48
      vertex -35 -43.2 101.48
      vertex -19.83 -45 101.48
    endloop
  endfacet
  facet normal 0 0 -1
    outer loop
      vertex -35 -43.2 101.48
      vertex -19.83 -43.2 101.48
      vertex -19.83 -45 101.48
    endloop
  endfacet
  facet normal 0 -0 1
    outer loop
      vertex -7 -45 115.48
      vertex -7 -43.2 115.48
      vertex -26.8367 -45 115.48
    endloop
  endfacet
  facet normal 0 0 1
    outer loop
      vertex -7 -43.2 115.48
      vertex -26.8367 -43.2 115.48
      vertex -26.8367 -45 115.48
    endloop
  endfacet
  facet normal -0.514495 0 -0.857493
    outer loop
      vertex -26.8367 -45 115.48
      vertex -26.8367 -43.2 115.48
      vertex -7 -45 103.578
    endloop
  endfacet
  facet normal -0.514495 0 -0.857493
    outer loop
      vertex -26.8367 -43.2 115.48
      vertex -7 -43.2 103.578
      vertex -7 -45 103.578
    endloop
  endfacet
  facet normal 1 0 0
    outer loop
      vertex -7 -45 103.578
      vertex -7 -43.2 103.578
      vertex -7 -45 115.48
    endloop
  endfacet
  facet normal 1 0 -0
    outer loop
      vertex -7 -43.2 103.578
      vertex -7 -43.2 115.48
      vertex -7 -45 115.48
    endloop
  endfacet
  facet normal 0 -0 1
    outer loop
      vertex 26.8367 -45 115.48
      vertex 26.8367 -43.2 115.48
      vertex 7 -45 115.48
    endloop
  endfacet
  facet normal 0 0 1
    outer loop
      vertex 26.8367 -43.2 115.48
      vertex 7 -43.2 115.48
      vertex 7 -45 115.48
    endloop
  endfacet
  facet normal -1 0 0
    outer loop
      vertex 7 -45 115.48
      vertex 7 -43.2 115.48
      vertex 7 -45 103.578
    endloop
  endfacet
  facet normal -1 0 -0
    outer loop
      vertex 7 -43.2 115.48
      vertex 7 -43.2 103.578
      vertex 7 -45 103.578
    endloop
  endfacet
  facet normal 0.514495 0 -0.857493
    outer loop
      vertex 7 -45 103.578
      vertex 7 -43.2 103.578
      vertex 26.8367 -45 115.48
    endloop
  endfacet
  facet normal 0.514495 0 -0.857493
    outer loop
      vertex 7 -43.2 103.578
      vertex 26.8367 -43.2 115.48
      vertex 26.8367 -45 115.48
    endloop
  endfacet
  facet normal 0 0 -1
    outer loop
      vertex 19.83 -45 101.48
      vertex 19.83 -43.2 101.48
      vertex 35 -45 101.48
    endloop
  endfacet
  facet normal 0 0 -1
    outer loop
      vertex 19.83 -43.2 101.48
      vertex 35 -43.2 101.48
      vertex 35 -45 101.48
    endloop
  endfacet
  facet normal 1 0 0
    outer loop
      vertex 35 -45 101.48
      vertex 35 -43.2 101.48
      vertex 35 -45 110.582
    endloop
  endfacet
  facet normal 1 0 -0
    outer loop
      vertex 35 -43.2 101.48
      vertex 35 -43.2 110.582
      vertex 35 -45 110.582
    endloop
  endfacet
  facet normal -0.514496 0 0.857493
    outer loop
      vertex 35 -45 110.582
      vertex 35 -43.2 110.582
      vertex 19.83 -45 101.48
    endloop
  endfacet
  facet normal -0.514496 0 0.857493
    outer loop
      vertex 35 -43.2 110.582
      vertex 19.83 -43.2 101.48
      vertex 19.83 -45 101.48
    endloop
  endfacet
  facet normal -1 0 0
    outer loop
      vertex -35 -45 87.48
      vertex -35 -43.2 87.48
      vertex -35 -45 78.378
    endloop
  endfacet
  facet normal -1 0 -0
    outer loop
      vertex -35 -43.2 87.48
      vertex -35 -43.2 78.378
      vertex -35 -45 78.378
    endloop
  endfacet
  facet normal 0.514496 0 -0.857493
    outer loop
      vertex -35 -45 78.378
      vertex -35 -43.2 78.378
      vertex -19.83 -45 87.48
    endloop
  endfacet
  facet normal 0.514496 0 -0.857493
    outer loop
      vertex -35 -43.2 78.378
      vertex -19.83 -43.2 87.48
      vertex -19.83 -45 87.48
    endloop
  endfacet
  facet normal 0 -0 1
    outer loop
      vertex -19.83 -45 87.48
      vertex -19.83 -43.2 87.48
      vertex -35 -45 87.48
    endloop
  endfacet
  facet normal 0 0 1
    outer loop
      vertex -19.83 -43.2 87.48
      vertex -35 -43.2 87.48
      vertex -35 -45 87.48
    endloop
  endfacet
  facet normal 0 -0 1
    outer loop
      vertex 35 -45 87.48
      vertex 35 -43.2 87.48
      vertex 19.83 -45 87.48
    endloop
  endfacet
  facet normal 0 0 1
    outer loop
      vertex 35 -43.2 87.48
      vertex 19.83 -43.2 87.48
      vertex 19.83 -45 87.48
    endloop
  endfacet
  facet normal -0.514496 0 -0.857493
    outer loop
      vertex 19.83 -45 87.48
      vertex 19.83 -43.2 87.48
      vertex 35 -45 78.378
    endloop
  endfacet
  facet normal -0.514496 0 -0.857493
    outer loop
      vertex 19.83 -43.2 87.48
      vertex 35 -43.2 78.378
      vertex 35 -45 78.378
    endloop
  endfacet
  facet normal 1 0 0
    outer loop
      vertex 35 -45 78.378
      vertex 35 -43.2 78.378
      vertex 35 -45 87.48
    endloop
  endfacet
  facet normal 1 0 -0
    outer loop
      vertex 35 -43.2 78.378
      vertex 35 -43.2 87.48
      vertex 35 -45 87.48
    endloop
  endfacet
  facet normal -1 0 0
    outer loop
      vertex 7 -45 85.382
      vertex 7 -43.2 85.382
      vertex 7 -45 73.48
    endloop
  endfacet
  facet normal -1 0 -0
    outer loop
      vertex 7 -43.2 85.382
      vertex 7 -43.2 73.48
      vertex 7 -45 73.48
    endloop
  endfacet
  facet normal 0 0 -1
    outer loop
      vertex 7 -45 73.48
      vertex 7 -43.2 73.48
      vertex 26.8367 -45 73.48
    endloop
  endfacet
  facet normal 0 0 -1
    outer loop
      vertex 7 -43.2 73.48
      vertex 26.8367 -43.2 73.48
      vertex 26.8367 -45 73.48
    endloop
  endfacet
  facet normal 0.514495 -0 0.857493
    outer loop
      vertex 26.8367 -45 73.48
      vertex 26.8367 -43.2 73.48
      vertex 7 -45 85.382
    endloop
  endfacet
  facet normal 0.514495 0 0.857493
    outer loop
      vertex 26.8367 -43.2 73.48
      vertex 7 -43.2 85.382
      vertex 7 -45 85.382
    endloop
  endfacet
  facet normal -0.514495 0 0.857493
    outer loop
      vertex -7 -45 85.382
      vertex -7 -43.2 85.382
      vertex -26.8367 -45 73.48
    endloop
  endfacet
  facet normal -0.514495 0 0.857493
    outer loop
      vertex -7 -43.2 85.382
      vertex -26.8367 -43.2 73.48
      vertex -26.8367 -45 73.48
    endloop
  endfacet
  facet normal 0 0 -1
    outer loop
      vertex -26.8367 -45 73.48
      vertex -26.8367 -43.2 73.48
      vertex -7 -45 73.48
    endloop
  endfacet
  facet normal 0 0 -1
    outer loop
      vertex -26.8367 -43.2 73.48
      vertex -7 -43.2 73.48
      vertex -7 -45 73.48
    endloop
  endfacet
  facet normal 1 0 0
    outer loop
      vertex -7 -45 73.48
      vertex -7 -43.2 73.48
      vertex -7 -45 85.382
    endloop
  endfacet
  facet normal 1 0 -0
    outer loop
      vertex -7 -43.2 73.48
      vertex -7 -43.2 85.382
      vertex -7 -45 85.382
    endloop
  endfacet
endsolid OpenSCAD_Model
